<mxfile host="drawio-plugin" modified="2023-02-27T10:01:54.271Z" agent="5.0 (Macintosh; Intel Mac OS X 10_15_7) AppleWebKit/537.36 (KHTML, like Gecko) Chrome/104.0.5112.102 Safari/537.36" etag="wufHtKyNjVKd9fuPm3IF" version="20.5.3" type="embed"><diagram name="第 1 页" id="RF4--qdceClJr_Qyvg9n"><mxGraphModel dx="715" dy="548" grid="1" gridSize="10" guides="1" tooltips="1" connect="1" arrows="1" fold="1" page="1" pageScale="1" pageWidth="1169" pageHeight="1654" math="0" shadow="0"><root><mxCell id="0"/><mxCell id="1" parent="0"/><mxCell id="gmzmHi3hg6lpTv-CMBU9-11" value="Asynq" style="rounded=0;whiteSpace=wrap;html=1;align=center;verticalAlign=top;" parent="1" vertex="1"><mxGeometry x="170" y="250" width="70" height="530" as="geometry"/></mxCell><mxCell id="gmzmHi3hg6lpTv-CMBU9-6" style="edgeStyle=orthogonalEdgeStyle;rounded=0;orthogonalLoop=1;jettySize=auto;html=1;entryX=0.5;entryY=0;entryDx=0;entryDy=0;" parent="1" source="gmzmHi3hg6lpTv-CMBU9-2" target="gmzmHi3hg6lpTv-CMBU9-4" edge="1"><mxGeometry relative="1" as="geometry"/></mxCell><mxCell id="gmzmHi3hg6lpTv-CMBU9-8" style="edgeStyle=orthogonalEdgeStyle;rounded=0;orthogonalLoop=1;jettySize=auto;html=1;exitX=0.5;exitY=1;exitDx=0;exitDy=0;entryX=0.5;entryY=0;entryDx=0;entryDy=0;" parent="1" source="gmzmHi3hg6lpTv-CMBU9-2" target="gmzmHi3hg6lpTv-CMBU9-3" edge="1"><mxGeometry relative="1" as="geometry"/></mxCell><mxCell id="gmzmHi3hg6lpTv-CMBU9-10" style="edgeStyle=orthogonalEdgeStyle;rounded=0;orthogonalLoop=1;jettySize=auto;html=1;exitX=0.5;exitY=1;exitDx=0;exitDy=0;" parent="1" source="gmzmHi3hg6lpTv-CMBU9-2" target="gmzmHi3hg6lpTv-CMBU9-5" edge="1"><mxGeometry relative="1" as="geometry"/></mxCell><mxCell id="gmzmHi3hg6lpTv-CMBU9-25" value="直接调用" style="edgeLabel;html=1;align=center;verticalAlign=middle;resizable=0;points=[];" parent="gmzmHi3hg6lpTv-CMBU9-10" vertex="1" connectable="0"><mxGeometry relative="1" as="geometry"><mxPoint x="-90" y="-25" as="offset"/></mxGeometry></mxCell><mxCell id="gmzmHi3hg6lpTv-CMBU9-23" style="edgeStyle=elbowEdgeStyle;rounded=0;orthogonalLoop=1;jettySize=auto;html=1;exitX=0;exitY=0.5;exitDx=0;exitDy=0;" parent="1" source="gmzmHi3hg6lpTv-CMBU9-2" edge="1"><mxGeometry relative="1" as="geometry"><mxPoint x="270" y="460" as="targetPoint"/><mxPoint x="400" y="260" as="sourcePoint"/><Array as="points"><mxPoint x="210" y="370"/></Array></mxGeometry></mxCell><mxCell id="gmzmHi3hg6lpTv-CMBU9-24" value="异步调用" style="edgeLabel;html=1;align=center;verticalAlign=middle;resizable=0;points=[];" parent="gmzmHi3hg6lpTv-CMBU9-23" vertex="1" connectable="0"><mxGeometry relative="1" as="geometry"><mxPoint x="-30" y="70" as="offset"/></mxGeometry></mxCell><mxCell id="gmzmHi3hg6lpTv-CMBU9-48" style="edgeStyle=orthogonalEdgeStyle;rounded=0;orthogonalLoop=1;jettySize=auto;html=1;exitX=1;exitY=0.5;exitDx=0;exitDy=0;entryX=0;entryY=0.5;entryDx=0;entryDy=0;entryPerimeter=0;startArrow=none;startFill=0;" parent="1" source="gmzmHi3hg6lpTv-CMBU9-2" target="gmzmHi3hg6lpTv-CMBU9-45" edge="1"><mxGeometry relative="1" as="geometry"/></mxCell><mxCell id="gmzmHi3hg6lpTv-CMBU9-50" value="文件存储" style="edgeLabel;html=1;align=center;verticalAlign=middle;resizable=0;points=[];" parent="gmzmHi3hg6lpTv-CMBU9-48" vertex="1" connectable="0"><mxGeometry relative="1" as="geometry"><mxPoint x="5" y="-2" as="offset"/></mxGeometry></mxCell><mxCell id="gmzmHi3hg6lpTv-CMBU9-2" value="http-app" style="rounded=1;whiteSpace=wrap;html=1;" parent="1" vertex="1"><mxGeometry x="500" y="260" width="120" height="60" as="geometry"/></mxCell><mxCell id="gmzmHi3hg6lpTv-CMBU9-32" style="edgeStyle=orthogonalEdgeStyle;rounded=0;orthogonalLoop=1;jettySize=auto;html=1;exitX=0.5;exitY=1;exitDx=0;exitDy=0;entryX=0.5;entryY=0;entryDx=0;entryDy=0;entryPerimeter=0;" parent="1" source="gmzmHi3hg6lpTv-CMBU9-3" target="gmzmHi3hg6lpTv-CMBU9-17" edge="1"><mxGeometry relative="1" as="geometry"><mxPoint x="370" y="700" as="targetPoint"/></mxGeometry></mxCell><mxCell id="gmzmHi3hg6lpTv-CMBU9-34" style="edgeStyle=orthogonalEdgeStyle;rounded=0;orthogonalLoop=1;jettySize=auto;html=1;exitX=0.75;exitY=1;exitDx=0;exitDy=0;startArrow=classic;startFill=1;" parent="1" source="gmzmHi3hg6lpTv-CMBU9-3" target="gmzmHi3hg6lpTv-CMBU9-20" edge="1"><mxGeometry relative="1" as="geometry"><Array as="points"><mxPoint x="400" y="540"/><mxPoint x="460" y="540"/></Array></mxGeometry></mxCell><mxCell id="gmzmHi3hg6lpTv-CMBU9-3" value="rpc-user" style="rounded=1;whiteSpace=wrap;html=1;" parent="1" vertex="1"><mxGeometry x="310" y="430" width="120" height="60" as="geometry"/></mxCell><mxCell id="gmzmHi3hg6lpTv-CMBU9-38" style="edgeStyle=orthogonalEdgeStyle;rounded=0;orthogonalLoop=1;jettySize=auto;html=1;exitX=0.5;exitY=1;exitDx=0;exitDy=0;entryX=0.5;entryY=0;entryDx=0;entryDy=0;entryPerimeter=0;" parent="1" source="gmzmHi3hg6lpTv-CMBU9-4" target="gmzmHi3hg6lpTv-CMBU9-35" edge="1"><mxGeometry relative="1" as="geometry"/></mxCell><mxCell id="gmzmHi3hg6lpTv-CMBU9-43" style="edgeStyle=orthogonalEdgeStyle;rounded=0;orthogonalLoop=1;jettySize=auto;html=1;exitX=0.25;exitY=1;exitDx=0;exitDy=0;entryX=0.5;entryY=0;entryDx=0;entryDy=0;entryPerimeter=0;startArrow=classic;startFill=1;" parent="1" source="gmzmHi3hg6lpTv-CMBU9-4" target="gmzmHi3hg6lpTv-CMBU9-20" edge="1"><mxGeometry relative="1" as="geometry"><Array as="points"><mxPoint x="530" y="540"/><mxPoint x="460" y="540"/></Array></mxGeometry></mxCell><mxCell id="gmzmHi3hg6lpTv-CMBU9-4" value="rpc-video" style="rounded=1;whiteSpace=wrap;html=1;" parent="1" vertex="1"><mxGeometry x="500" y="430" width="120" height="60" as="geometry"/></mxCell><mxCell id="gmzmHi3hg6lpTv-CMBU9-40" style="edgeStyle=orthogonalEdgeStyle;rounded=0;orthogonalLoop=1;jettySize=auto;html=1;exitX=0.5;exitY=1;exitDx=0;exitDy=0;" parent="1" source="gmzmHi3hg6lpTv-CMBU9-5" target="gmzmHi3hg6lpTv-CMBU9-36" edge="1"><mxGeometry relative="1" as="geometry"/></mxCell><mxCell id="gmzmHi3hg6lpTv-CMBU9-44" style="edgeStyle=orthogonalEdgeStyle;rounded=0;orthogonalLoop=1;jettySize=auto;html=1;exitX=0.25;exitY=1;exitDx=0;exitDy=0;entryX=0.5;entryY=0;entryDx=0;entryDy=0;entryPerimeter=0;startArrow=classic;startFill=1;" parent="1" source="gmzmHi3hg6lpTv-CMBU9-5" target="gmzmHi3hg6lpTv-CMBU9-20" edge="1"><mxGeometry relative="1" as="geometry"><Array as="points"><mxPoint x="710" y="540"/><mxPoint x="460" y="540"/></Array></mxGeometry></mxCell><mxCell id="gmzmHi3hg6lpTv-CMBU9-5" value="rpc-contact" style="rounded=1;whiteSpace=wrap;html=1;" parent="1" vertex="1"><mxGeometry x="680" y="430" width="120" height="60" as="geometry"/></mxCell><mxCell id="gmzmHi3hg6lpTv-CMBU9-18" value="&lt;span style=&quot;color: rgb(240, 240, 240); font-family: Helvetica; font-size: 12px; font-style: normal; font-variant-ligatures: normal; font-variant-caps: normal; font-weight: 400; letter-spacing: normal; orphans: 2; text-align: center; text-indent: 0px; text-transform: none; widows: 2; word-spacing: 0px; -webkit-text-stroke-width: 0px; background-color: rgb(42, 37, 47); text-decoration-thickness: initial; text-decoration-style: initial; text-decoration-color: initial; float: none; display: inline !important;&quot;&gt;mysql&lt;/span&gt;" style="swimlane;horizontal=0;whiteSpace=wrap;html=1;dashed=1;" parent="1" vertex="1"><mxGeometry x="280" y="660" width="550" height="120" as="geometry"><mxRectangle x="280" y="640" width="40" height="70" as="alternateBounds"/></mxGeometry></mxCell><mxCell id="gmzmHi3hg6lpTv-CMBU9-17" value="user" style="shape=cylinder3;whiteSpace=wrap;html=1;boundedLbl=1;backgroundOutline=1;size=15;" parent="gmzmHi3hg6lpTv-CMBU9-18" vertex="1"><mxGeometry x="55" y="30" width="70" height="70" as="geometry"/></mxCell><mxCell id="gmzmHi3hg6lpTv-CMBU9-35" value="video" style="shape=cylinder3;whiteSpace=wrap;html=1;boundedLbl=1;backgroundOutline=1;size=15;" parent="gmzmHi3hg6lpTv-CMBU9-18" vertex="1"><mxGeometry x="245" y="30" width="70" height="70" as="geometry"/></mxCell><mxCell id="gmzmHi3hg6lpTv-CMBU9-36" value="contact" style="shape=cylinder3;whiteSpace=wrap;html=1;boundedLbl=1;backgroundOutline=1;size=15;" parent="gmzmHi3hg6lpTv-CMBU9-18" vertex="1"><mxGeometry x="425" y="30" width="70" height="70" as="geometry"/></mxCell><mxCell id="gmzmHi3hg6lpTv-CMBU9-20" value="redis" style="shape=cylinder3;whiteSpace=wrap;html=1;boundedLbl=1;backgroundOutline=1;size=15;" parent="1" vertex="1"><mxGeometry x="420" y="560" width="80" height="80" as="geometry"/></mxCell><mxCell id="gmzmHi3hg6lpTv-CMBU9-21" value="rpc服务" style="swimlane;horizontal=0;whiteSpace=wrap;html=1;dashed=1;" parent="1" vertex="1"><mxGeometry x="270" y="400" width="550" height="120" as="geometry"/></mxCell><mxCell id="gmzmHi3hg6lpTv-CMBU9-28" value="" style="endArrow=classic;startArrow=classic;html=1;rounded=0;entryX=0;entryY=0.5;entryDx=0;entryDy=0;entryPerimeter=0;exitX=0;exitY=0.5;exitDx=0;exitDy=0;edgeStyle=orthogonalEdgeStyle;" parent="1" source="gmzmHi3hg6lpTv-CMBU9-18" target="gmzmHi3hg6lpTv-CMBU9-20" edge="1"><mxGeometry width="50" height="50" relative="1" as="geometry"><mxPoint x="600" y="590" as="sourcePoint"/><mxPoint x="650" y="540" as="targetPoint"/><Array as="points"><mxPoint x="210" y="720"/><mxPoint x="210" y="600"/></Array></mxGeometry></mxCell><mxCell id="gmzmHi3hg6lpTv-CMBU9-29" value="维护一致性" style="edgeLabel;html=1;align=center;verticalAlign=middle;resizable=0;points=[];" parent="gmzmHi3hg6lpTv-CMBU9-28" vertex="1" connectable="0"><mxGeometry relative="1" as="geometry"><mxPoint x="-15" y="60" as="offset"/></mxGeometry></mxCell><mxCell id="gmzmHi3hg6lpTv-CMBU9-45" value="OSS" style="shape=cylinder3;whiteSpace=wrap;html=1;boundedLbl=1;backgroundOutline=1;size=15;" parent="1" vertex="1"><mxGeometry x="720" y="255" width="80" height="70" as="geometry"/></mxCell></root></mxGraphModel></diagram></mxfile>